<mxfile host="app.diagrams.net" modified="2022-06-07T07:47:32.003Z" agent="5.0 (Macintosh; Intel Mac OS X 10_15_7) AppleWebKit/537.36 (KHTML, like Gecko) Chrome/102.0.5005.63 Safari/537.36 Edg/102.0.1245.33" etag="DTPH5A0eafy0Im2DFn09" version="19.0.0" type="github">
  <diagram id="BAvSIG6FTRZO7CbohJuk" name="Page-1">
    <mxGraphModel dx="1426" dy="769" grid="1" gridSize="10" guides="1" tooltips="1" connect="1" arrows="1" fold="1" page="1" pageScale="1" pageWidth="827" pageHeight="1169" math="0" shadow="0">
      <root>
        <mxCell id="0" />
        <mxCell id="1" parent="0" />
        <mxCell id="3yJQDP6p13zQjJPsn85u-1" style="edgeStyle=orthogonalEdgeStyle;rounded=0;orthogonalLoop=1;jettySize=auto;html=1;entryX=0.5;entryY=0;entryDx=0;entryDy=0;" parent="1" source="3yJQDP6p13zQjJPsn85u-2" edge="1">
          <mxGeometry relative="1" as="geometry">
            <mxPoint x="440" y="280" as="targetPoint" />
          </mxGeometry>
        </mxCell>
        <mxCell id="3yJQDP6p13zQjJPsn85u-2" value="传入groupid、taskindex、传感模型参数及时间戳" style="rounded=1;whiteSpace=wrap;html=1;" parent="1" vertex="1">
          <mxGeometry x="380" y="160" width="120" height="60" as="geometry" />
        </mxCell>
        <mxCell id="3yJQDP6p13zQjJPsn85u-4" value="否" style="edgeStyle=orthogonalEdgeStyle;rounded=0;orthogonalLoop=1;jettySize=auto;html=1;entryX=0;entryY=0.5;entryDx=0;entryDy=0;" parent="1" source="3yJQDP6p13zQjJPsn85u-5" target="3yJQDP6p13zQjJPsn85u-11" edge="1">
          <mxGeometry relative="1" as="geometry" />
        </mxCell>
        <mxCell id="3yJQDP6p13zQjJPsn85u-14" style="edgeStyle=orthogonalEdgeStyle;rounded=0;orthogonalLoop=1;jettySize=auto;html=1;entryX=0.5;entryY=0;entryDx=0;entryDy=0;" parent="1" source="3yJQDP6p13zQjJPsn85u-5" target="3yJQDP6p13zQjJPsn85u-13" edge="1">
          <mxGeometry relative="1" as="geometry" />
        </mxCell>
        <mxCell id="3yJQDP6p13zQjJPsn85u-16" value="是" style="edgeLabel;html=1;align=center;verticalAlign=middle;resizable=0;points=[];" parent="3yJQDP6p13zQjJPsn85u-14" vertex="1" connectable="0">
          <mxGeometry x="-0.1272" y="-1" relative="1" as="geometry">
            <mxPoint as="offset" />
          </mxGeometry>
        </mxCell>
        <mxCell id="3yJQDP6p13zQjJPsn85u-5" value="Redis数据库中是否能&lt;br&gt;&amp;nbsp; 查询到对应设备信息？" style="rhombus;whiteSpace=wrap;html=1;" parent="1" vertex="1">
          <mxGeometry x="355" y="280" width="170" height="80" as="geometry" />
        </mxCell>
        <mxCell id="3yJQDP6p13zQjJPsn85u-6" style="edgeStyle=orthogonalEdgeStyle;rounded=0;orthogonalLoop=1;jettySize=auto;html=1;exitX=0.5;exitY=1;exitDx=0;exitDy=0;" parent="1" target="3yJQDP6p13zQjJPsn85u-9" edge="1">
          <mxGeometry relative="1" as="geometry">
            <mxPoint x="440" y="470" as="sourcePoint" />
          </mxGeometry>
        </mxCell>
        <mxCell id="3yJQDP6p13zQjJPsn85u-25" value="是" style="edgeLabel;html=1;align=center;verticalAlign=middle;resizable=0;points=[];" parent="3yJQDP6p13zQjJPsn85u-6" vertex="1" connectable="0">
          <mxGeometry x="0.2997" y="-1" relative="1" as="geometry">
            <mxPoint as="offset" />
          </mxGeometry>
        </mxCell>
        <mxCell id="3yJQDP6p13zQjJPsn85u-22" style="edgeStyle=orthogonalEdgeStyle;rounded=0;orthogonalLoop=1;jettySize=auto;html=1;" parent="1" source="3yJQDP6p13zQjJPsn85u-9" target="3yJQDP6p13zQjJPsn85u-21" edge="1">
          <mxGeometry relative="1" as="geometry" />
        </mxCell>
        <mxCell id="3yJQDP6p13zQjJPsn85u-9" value="为设备更新传感模型的起始时间" style="rounded=0;whiteSpace=wrap;html=1;" parent="1" vertex="1">
          <mxGeometry x="380" y="554.5" width="120" height="60" as="geometry" />
        </mxCell>
        <mxCell id="3yJQDP6p13zQjJPsn85u-10" value="将更新成功的结果返回给客户端" style="rounded=1;whiteSpace=wrap;html=1;" parent="1" vertex="1">
          <mxGeometry x="380" y="790" width="120" height="60" as="geometry" />
        </mxCell>
        <mxCell id="3yJQDP6p13zQjJPsn85u-11" value="将错误信息返回给客户端" style="rounded=1;whiteSpace=wrap;html=1;" parent="1" vertex="1">
          <mxGeometry x="580" y="290" width="120" height="60" as="geometry" />
        </mxCell>
        <mxCell id="3yJQDP6p13zQjJPsn85u-18" style="edgeStyle=orthogonalEdgeStyle;rounded=0;orthogonalLoop=1;jettySize=auto;html=1;exitX=1;exitY=0.5;exitDx=0;exitDy=0;" parent="1" source="3yJQDP6p13zQjJPsn85u-13" target="3yJQDP6p13zQjJPsn85u-17" edge="1">
          <mxGeometry relative="1" as="geometry" />
        </mxCell>
        <mxCell id="3yJQDP6p13zQjJPsn85u-20" value="否" style="edgeLabel;html=1;align=center;verticalAlign=middle;resizable=0;points=[];" parent="3yJQDP6p13zQjJPsn85u-18" vertex="1" connectable="0">
          <mxGeometry x="-0.0182" y="1" relative="1" as="geometry">
            <mxPoint as="offset" />
          </mxGeometry>
        </mxCell>
        <mxCell id="3yJQDP6p13zQjJPsn85u-13" value="设备是否已经被配置" style="rhombus;whiteSpace=wrap;html=1;" parent="1" vertex="1">
          <mxGeometry x="370" y="420" width="140" height="80" as="geometry" />
        </mxCell>
        <mxCell id="3yJQDP6p13zQjJPsn85u-17" value="将错误信息返回给客户端" style="rounded=1;whiteSpace=wrap;html=1;" parent="1" vertex="1">
          <mxGeometry x="580" y="430" width="120" height="60" as="geometry" />
        </mxCell>
        <mxCell id="3yJQDP6p13zQjJPsn85u-23" style="edgeStyle=orthogonalEdgeStyle;rounded=0;orthogonalLoop=1;jettySize=auto;html=1;entryX=0.5;entryY=0;entryDx=0;entryDy=0;" parent="1" source="3yJQDP6p13zQjJPsn85u-21" target="3yJQDP6p13zQjJPsn85u-10" edge="1">
          <mxGeometry relative="1" as="geometry" />
        </mxCell>
        <mxCell id="3yJQDP6p13zQjJPsn85u-21" value="在Redis中更新设备对应的传感模型配置" style="rounded=0;whiteSpace=wrap;html=1;" parent="1" vertex="1">
          <mxGeometry x="380" y="670" width="120" height="60" as="geometry" />
        </mxCell>
      </root>
    </mxGraphModel>
  </diagram>
</mxfile>
